#Texts.obj
#Friday, May 26, 2017
#11:59:38 PM
#-------

#Texts
#-------
g Texts
v -2.822388 0 0
v -2.822388 0 -3.38015
v 3.324852 0 0
v 3.324852 0 -3.38015
v -2.822388 0 -3.38015
v -2.822388 0 -6.7603
v 3.324852 0 -3.38015
v 3.324852 0 -6.7603
v 3.324852 0 0
v 3.324852 0 -3.38015
v 6.64971 0 0
v 6.64971 0 -3.38015
v 3.324852 0 -3.38015
v 3.324852 0 -6.7603
v 6.64971 0 -3.38015
v 6.64971 0 -6.7603

vn 0 -1 0
vn 0 -1 0
vn 0 -1 0
vn 0 -1 0
vn 0 -1 0
vn 0 -1 0
vn 0 -1 0
vn 0 -1 0
vn 0 -1 0
vn 0 -1 0
vn 0 -1 0
vn 0 -1 0
vn 0 -1 0
vn 0 -1 0
vn 0 -1 0
vn 0 -1 0

vt 4.768372E-07 0
vt 4.768372E-07 5
vt 9.244379 0
vt 9.244379 5
vt 4.768372E-07 0
vt 4.768372E-07 5
vt 9.244379 0
vt 9.244379 5
vt 0 0
vt 0 5
vt 5 0
vt 5 5
vt 0 0
vt 0 5
vt 5 0
vt 5 5

usemtl PointTextBackground
usemap PointTextBackground
f 1/1/1 2/2/2 3/3/3
f 2/2/2 4/4/4 3/3/3
f 5/5/5 6/6/6 7/7/7
f 6/6/6 8/8/8 7/7/7
f 9/9/9 10/10/10 11/11/11
f 10/10/10 12/12/12 11/11/11
f 13/13/13 14/14/14 15/15/15
f 14/14/14 16/16/16 15/15/15
#Name
#-------
g Name
#Cost
#-------
g Cost
#Profit
#-------
g Profit
#Lvls
#-------
g Lvls
#Owner
#-------
g Owner
