mtllib ./Main_1.mtl
g Texts
v 57.87239 0.2550001 -48.285
v 57.87239 0.2550001 -44.90485
v 51.72514 0.2550001 -48.285
v 51.72514 0.2550001 -44.90485
v 57.87239 0.2550001 -44.90485
v 57.87239 0.2550001 -41.5247
v 51.72514 0.2550001 -44.90485
v 51.72514 0.2550001 -41.5247
v 51.72514 0.2550001 -48.285
v 51.72514 0.2550001 -44.90485
v 48.40029 0.2550001 -48.285
v 48.40029 0.2550001 -44.90485
v 51.72514 0.2550001 -44.90485
v 51.72514 0.2550001 -41.5247
v 48.40029 0.2550001 -44.90485
v 48.40029 0.2550001 -41.5247

vn 0 1 0
vn 0 1 0
vn 0 1 0
vn 0 1 0
vn 0 1 0
vn 0 1 0
vn 0 1 0
vn 0 1 0
vn 0 1 0
vn 0 1 0
vn 0 1 0
vn 0 1 0
vn 0 1 0
vn 0 1 0
vn 0 1 0
vn 0 1 0

vt 4.768372E-07 0
vt 4.768372E-07 5
vt 9.244379 0
vt 9.244379 5
vt 4.768372E-07 0
vt 4.768372E-07 5
vt 9.244379 0
vt 9.244379 5
vt 0 0
vt 0 5
vt 5 0
vt 5 5
vt 0 0
vt 0 5
vt 5 0
vt 5 5

usemtl PointTextBackground
usemap PointTextBackground
f 2/2/2 1/1/1 3/3/3
f 4/4/4 2/2/2 3/3/3
f 6/6/6 5/5/5 7/7/7
f 8/8/8 6/6/6 7/7/7
f 10/10/10 9/9/9 11/11/11
f 12/12/12 10/10/10 11/11/11
f 14/14/14 13/13/13 15/15/15
f 16/16/16 14/14/14 15/15/15
